<svg xmlns='http://www.w3.org/2000/svg'>
	<symbol id='watch' viewBox='0 0 20 20' fill='inherit'>
		<path d="M5 2.813 17.5 10 5 17.188V2.813Z"/>
	</symbol>
	<symbol id='ticket' viewBox='0 0 12 12' fill='inherit'>
		<g clip-path="url(#a)"><path fill-rule="evenodd" clip-rule="evenodd" d="M.5 6.786 6.786.5l1.246 1.246a1.571 1.571 0 0 0 2.222 2.222L11.5 5.214 5.214 11.5l-1.246-1.246a1.571 1.571 0 0 0-2.222-2.222L.5 6.786Zm4-1.557L6.89 7.62l.85-.849-2.392-2.39-.848.848Z" fill="#fff"/></g>
	</symbol>
	<symbol id='arrow-slider' viewBox='0 0 8 14' fill='inherit'>
		<path d='M1.3 0 8 7l-6.7 7L0 12.7 5.5 7 0 1.3z'/>
	</symbol>
	<symbol id='main-logo' fill='inherit' viewBox='0 0 24 24'>
		 <path d="M 5.144531 10.148438 C 5.101562 9.78125 4.972656 9.441406 4.777344 9.148438 L 22.335938 3.285156 L 21.414062 0.523438 C 21.28125 0.121094 20.847656 -0.09375 20.445312 0.0390625 L 1.34375 6.417969 C 0.941406 6.550781 0.726562 6.984375 0.859375 7.386719 L 1.3125 8.738281 C 0.859375 9.160156 0.578125 9.757812 0.578125 10.417969 C 0.578125 11.277344 1.050781 12.027344 1.753906 12.417969 L 1.753906 23.234375 C 1.753906 23.65625 2.097656 24 2.519531 24 L 22.65625 24 C 23.078125 24 23.421875 23.65625 23.421875 23.234375 L 23.421875 10.148438 Z M 16.335938 2.3125 L 18.664062 1.535156 L 18.101562 3.796875 L 15.777344 4.574219 Z M 10.59375 4.230469 L 12.917969 3.453125 L 12.359375 5.714844 L 10.035156 6.492188 Z M 2.871094 11.585938 C 2.226562 11.585938 1.703125 11.0625 1.703125 10.417969 C 1.703125 9.773438 2.226562 9.25 2.871094 9.25 C 3.515625 9.25 4.039062 9.773438 4.039062 10.417969 C 4.039062 11.0625 3.515625 11.585938 2.871094 11.585938 Z M 4.851562 6.148438 L 7.175781 5.371094 L 6.617188 7.632812 L 4.292969 8.410156 Z M 7.132812 12.734375 L 4.683594 12.734375 L 5.929688 10.765625 L 8.382812 10.765625 Z M 11.984375 10.765625 L 14.4375 10.765625 L 13.191406 12.734375 L 10.738281 12.734375 Z M 11.382812 20.273438 L 11.382812 15.082031 L 15.515625 17.679688 Z M 19.246094 12.734375 L 16.792969 12.734375 L 18.039062 10.765625 L 20.492188 10.765625 Z M 19.246094 12.734375 "/>
	</symbol>
	<symbol id='arrow-link' fill='inherit' viewBox='0 0 48 48'>
		<path fill-rule="evenodd" clip-rule="evenodd" d="M29.519 23.968 13.339 8.466 16.66 5l18 17.246 1.821 1.745-1.832 1.732-18 17.02-3.298-3.487L29.52 23.968Z"/>
	</symbol>
	<symbol id='home' fill='inherit' viewBox='0 0 24 24'>
		<path fill-rule="evenodd" clip-rule="evenodd" d="M12 3.238 3.5 8.926V21.01h5.41v-7.47h6.18v7.47h5.41V8.926L12 3.238Z" fill="#000"/>
	</symbol>
	<symbol id='movie' fill='inherit' viewBox='0 0 24 24'>
		<path fill-rule="evenodd" clip-rule="evenodd" d="M19.1 7.9H4.9v9.2h14.2V7.9ZM4.9 5.5H2.5v14h19v-14H4.9Z" fill="#000"/>
	</symbol>
	<symbol id='series' fill='inherit' viewBox='0 0 24 24'>
		<path fill-rule="evenodd" clip-rule="evenodd" d="M3.9 7.9h9.7v9.2H3.9V7.9ZM1.5 5.5H16v14H1.5v-14Zm19.4 2.4h1.6V5.5h-4v14h4v-2.4h-1.6V7.9Z" fill="#000"/>
	</symbol>
	<symbol id='search' fill='inherit' viewBox='0 0 24 24'>
		<path fill-rule='evenodd' d='M16.4 10.5C16.4 13.7585 13.7585 16.4 10.5 16.4C7.24152 16.4 4.6 13.7585 4.6 10.5C4.6 7.24152 7.24152 4.6 10.5 4.6C13.7585 4.6 16.4 7.24152 16.4 10.5ZM15.356 17.4773C13.9794 18.4371 12.3054 19 10.5 19C5.80558 19 2 15.1944 2 10.5C2 5.80558 5.80558 2 10.5 2C15.1944 2 19 5.80558 19 10.5C19 12.3054 18.4371 13.9794 17.4773 15.356L21.5607 19.4393L19.4393 21.5607L15.356 17.4773Z' fill='rgba(255,255,255,.6)'/>
	</symbol>
	<symbol id='close' fill='inherit' viewBox='0 0 24 24'>
		<path clip-rule='evenodd' d='M10.303 12 4.15 5.848l1.697-1.697L12 10.303l6.151-6.152 1.698 1.697L13.697 12l6.152 6.151-1.698 1.697L12 13.697l-6.152 6.151-1.697-1.697L10.303 12Z' />
	</symbol>
	<symbol id='bookmarked' fill='inherit' viewBox='0 0 24 24'>
		<path d="M5.5 3.5h13V21L12 17.45 5.5 21V3.5Z"/>
	</symbol>
	<symbol id='vk' fill='inherit' viewBox='0 0 24 24'>
		<path xmlns="http://www.w3.org/2000/svg" fill-rule="evenodd" d="M22.463 6.823c.095-.447-.116-.698-.615-.698h-2.515c-.576 0-.787.233-.96.572 0 0-1.36 2.7-3.013 4.4-.532.55-.802.715-1.095.715-.236 0-.345-.183-.345-.68V6.788c0-.608-.077-.787-.615-.787H9.274c-.307 0-.5.166-.5.393 0 .573.941.702.941 2.254v3.2c0 .645-.038.895-.364.895-.864 0-2.918-2.772-4.07-5.92C5.051 6.18 4.801 6 4.148 6H1.634C1.269 6 1 6.232 1 6.572c0 .626.787 3.523 3.878 7.404C6.95 16.587 9.678 18 12.134 18c1.498 0 1.862-.232 1.862-.823v-2.003c0-.5.212-.715.519-.715.345 0 .955.103 2.38 1.413C18.585 17.374 18.7 18 19.621 18h2.822c.288 0 .557-.125.557-.572 0-.59-.826-1.646-2.093-2.897-.518-.644-1.363-1.342-1.631-1.664-.384-.375-.269-.59 0-.983 0 0 2.898-3.81 3.187-5.061z"/>
	</symbol>
	<symbol id='twitter' fill='inherit' viewBox='0 0 24 24'>
		<path xmlns="http://www.w3.org/2000/svg" fill-rule="evenodd" d="M19.761 6.474a3.949 3.949 0 0 0 1.715-2.185 7.732 7.732 0 0 1-2.477.957A3.865 3.865 0 0 0 16.154 4c-2.15 0-3.897 1.77-3.897 3.95 0 .31.034.61.101.9-3.24-.166-6.111-1.736-8.036-4.13a3.986 3.986 0 0 0-.527 1.99c0 1.368.688 2.578 1.734 3.286a3.861 3.861 0 0 1-1.766-.492v.048c0 1.915 1.344 3.512 3.128 3.873a3.83 3.83 0 0 1-1.762.07c.497 1.569 1.936 2.71 3.643 2.741A7.754 7.754 0 0 1 3 17.873a10.945 10.945 0 0 0 5.975 1.774c7.17 0 11.091-6.018 11.091-11.238 0-.172-.003-.344-.01-.512A7.945 7.945 0 0 0 22 5.852c-.71.32-1.465.53-2.239.622z"/>
	</symbol>
	<symbol id='telegram' fill='inherit' viewBox='0 0 24 24'>
		<path xmlns="http://www.w3.org/2000/svg" fill-rule="evenodd" d="M12.59 16.594l-2.593 2.423s-.203.157-.425.059l.497-4.5.017.013.01-.092s7.272-6.697 7.57-6.982c.298-.285.198-.346.198-.346.02-.346-.536 0-.536 0l-9.636 6.27-4.013-1.384s-.616-.224-.676-.713c-.06-.488.696-.753.696-.753l15.953-6.412s1.312-.59 1.312.387L18.123 19.24s-.398 1.018-1.49.53l-4.043-3.176z"/>
	</symbol>
	<symbol id='youtube' fill='inherit' viewBox='0 0 24 24'>
		<path xmlns="http://www.w3.org/2000/svg" fill-rule="evenodd" d="M21.654 6.413c-.244-1.145-1.114-1.989-2.162-2.115-2.48-.298-4.99-.3-7.489-.298-2.499-.001-5.01 0-7.49.298-1.046.126-1.916.97-2.16 2.115C2.002 8.043 2 9.822 2 11.5s0 3.457.348 5.087c.245 1.144 1.115 1.989 2.162 2.115 2.48.298 4.99.3 7.49.298 2.499.001 5.009 0 7.488-.298 1.047-.126 1.917-.97 2.162-2.115.349-1.63.35-3.409.35-5.087s.003-3.457-.346-5.087zM10 15V8l6 3.51L10 15z"/>
	</symbol>
	<symbol id='app-store' fill='inherit' viewBox='0 0 154 46'>
		<rect width="154" height="46" rx="8" fill="white" fill-opacity="0.08"/>
		<path fill-rule="evenodd" clip-rule="evenodd" d="M49.9156 13.0855H50.8371C51.1578 13.1253 51.4806 13.0298 51.7274 12.822C51.9742 12.6142 52.1225 12.3132 52.1365 11.9917C52.1365 11.3589 51.6582 10.9501 50.8472 10.9501C50.5189 10.9044 50.186 10.9928 49.9241 11.1952C49.6622 11.3976 49.4935 11.6968 49.4565 12.0248H48.4447C48.4799 11.429 48.7622 10.8746 49.2239 10.494C49.6857 10.1135 50.2855 9.94103 50.8799 10.0179C52.2368 10.0179 53.1922 10.7743 53.1922 11.8631C53.1988 12.6148 52.677 13.2688 51.9402 13.4326V13.5134C52.8227 13.5524 53.5077 14.2939 53.4731 15.1727C53.4097 15.7858 53.1011 16.3476 52.6168 16.7314C52.1325 17.1153 51.5134 17.2887 50.8991 17.2128C50.2835 17.2963 49.6602 17.1273 49.1721 16.7445C48.684 16.3616 48.3731 15.7978 48.3105 15.1823H49.3381C49.4001 15.8387 50.0058 16.2621 50.8991 16.2621C51.7925 16.2621 52.3756 15.7865 52.3756 15.1161C52.3756 14.4361 51.8263 14.0172 50.8664 14.0172H49.9156V13.0855ZM56.575 14.0361C55.3388 14.1124 54.6406 14.6498 54.6406 15.5819C54.6424 16.0239 54.8318 16.4445 55.1621 16.7398C55.4924 17.0351 55.9327 17.1774 56.3743 17.1317C57.0041 17.1607 57.6009 16.8501 57.9364 16.3187H58.0176V17.0464H59.0068V13.5082C59.0068 12.4144 58.2714 11.7681 56.9675 11.7681C55.7877 11.7681 54.9463 12.3386 54.8414 13.228H55.8351C55.9502 12.8619 56.3461 12.6525 56.919 12.6525C57.6217 12.6525 57.9838 12.9613 57.9838 13.5082V13.9552L56.575 14.0361ZM57.9838 14.7065V15.1394C57.9614 15.4695 57.8053 15.7763 57.5515 15.9897C57.2976 16.2031 56.9676 16.3048 56.6371 16.2715C56.0787 16.2715 55.6726 16.0003 55.6726 15.5342C55.6726 15.0777 55.9975 14.8351 56.7137 14.7874L57.9838 14.7065ZM61.7305 17.0465V12.7284L64.1285 12.7284V11.8682H60.7041V17.0465H61.7305ZM68.2003 17.1319C69.5133 17.1319 70.3491 16.1004 70.3491 14.4551C70.3491 12.8093 69.5132 11.7823 68.1902 11.7823C67.5113 11.7656 66.8804 12.1294 66.557 12.724H66.4803V11.8682H65.4922V18.7682H66.5186V16.2621H66.5998C66.918 16.8373 67.5423 17.1766 68.2003 17.1319ZM67.9037 12.7003C68.7733 12.7003 69.2933 13.3613 69.2933 14.4551C69.2933 15.5534 68.7733 16.2144 67.8992 16.2144C67.0397 16.2144 66.4994 15.5389 66.4994 14.4596C66.4994 13.3753 67.0398 12.7003 67.9037 12.7003ZM71.7167 18.0213V18.9013C71.8126 18.9153 72.0562 18.9248 72.1419 18.9248C73.2022 18.9248 73.694 18.5205 74.1384 17.2605L76.0773 11.8682H74.9888L73.6894 15.9813H73.6082L72.3043 11.8682H71.1865L73.069 17.0656L72.9923 17.3177C72.9099 17.7624 72.5045 18.0738 72.0516 18.0404C71.9397 18.0418 71.8278 18.0354 71.7167 18.0213ZM76.877 15.577H77.8989C77.9992 16.0335 78.429 16.2716 79.0302 16.2716C79.7137 16.2716 80.1333 15.9717 80.1333 15.5057C80.1333 15.0065 79.7566 14.7684 79.0302 14.7684H78.2519V13.9744H79.0166C79.637 13.9744 79.9528 13.7369 79.9528 13.3039C79.9528 12.9238 79.6472 12.6335 79.0166 12.6335C78.4425 12.6335 78.0229 12.8761 77.9563 13.2849H76.9672C77.121 12.3077 78.0325 11.6331 79.0166 11.7682C80.2528 11.7682 80.9601 12.3247 80.9601 13.1995C80.972 13.7016 80.6296 14.1435 80.1389 14.2597V14.3405C80.7257 14.4159 81.163 14.9166 81.1563 15.5057C81.1563 16.4901 80.3149 17.1414 79.0302 17.1414C77.8943 17.1414 76.9717 16.6231 76.877 15.577ZM82.6338 11.8682V17.0465L83.6512 17.0466L86.0525 13.4657H86.1292V17.0465H87.1466V11.8682H86.1292L83.7324 15.4299H83.6512V11.8682H82.6338ZM92.7514 12.7284H91.1136V17.0465H90.086V12.7284H88.4482V11.8682H92.7514V12.7284ZM98.281 15.6483C97.9923 16.625 97.0429 17.2559 96.0263 17.1464C95.3327 17.1647 94.6662 16.8784 94.2036 16.3637C93.7409 15.849 93.5289 15.1578 93.6238 14.4736C93.5314 13.7874 93.7427 13.0951 94.2028 12.5761C94.6628 12.057 95.3265 11.7623 96.0217 11.7682C97.4689 11.7682 98.343 12.7526 98.343 14.3787V14.7353H94.6705V14.7925C94.6376 15.1769 94.7693 15.5572 95.0331 15.8397C95.2968 16.1222 95.6682 16.2807 96.0556 16.276C96.5574 16.3358 97.0457 16.0878 97.2918 15.6483L98.281 15.6483ZM94.6705 13.9794H97.2963C97.3225 13.6282 97.1986 13.2822 96.955 13.0268C96.7115 12.7713 96.3709 12.6301 96.0172 12.638C95.6585 12.6331 95.313 12.7729 95.0593 13.0256C94.8057 13.2782 94.6655 13.6222 94.6705 13.9794ZM102.632 11.8682H104.977C105.994 11.8682 106.591 12.3814 106.591 13.1849C106.594 13.7104 106.228 14.1665 105.712 14.2788V14.3596C106.343 14.3993 106.832 14.9241 106.824 15.5534C106.824 16.4569 106.142 17.0465 105 17.0465H102.632V11.8682ZM103.649 12.6526V13.9935H104.667C105.287 13.9935 105.584 13.756 105.584 13.318C105.584 12.9143 105.325 12.6526 104.781 12.6526L103.649 12.6526ZM103.649 16.2621V14.7449L104.738 14.7449C105.43 14.7449 105.798 14.9874 105.798 15.5057C105.798 15.9954 105.473 16.2621 104.866 16.2621H103.649ZM90.3086 31.2357C90.4676 32.6518 91.8493 33.5817 93.7375 33.5817C95.5467 33.5817 96.8483 32.6518 96.8483 31.3749C96.8483 30.2664 96.0633 29.6027 94.2044 29.1479L92.3456 28.702C89.7119 28.0686 88.4892 26.8422 88.4892 24.8522C88.4892 22.3882 90.6458 20.6958 93.7081 20.6958C96.7389 20.6958 98.8165 22.3882 98.8865 24.8522H96.7197C96.59 23.4271 95.4068 22.5668 93.6777 22.5668C91.9486 22.5668 90.7654 23.4372 90.7654 24.704C90.7654 25.7136 91.5211 26.3077 93.3697 26.7625L94.95 27.1488C97.8927 27.8417 99.1154 29.0187 99.1154 31.1075C99.1154 33.7793 96.978 35.4526 93.5784 35.4526C90.3976 35.4526 88.2501 33.8186 88.1113 31.2356L90.3086 31.2357ZM50.8746 31.3549H56.3417L57.6535 35.2148H60.0086L54.8303 20.9341H52.4244L47.2461 35.2148H49.5617L50.8746 31.3549ZM55.7744 29.5737H51.4409L53.5783 23.3094H53.6381L55.7744 29.5737ZM66.8281 35.3235C69.4528 35.3235 71.192 33.2447 71.192 30.0092C71.192 26.7827 69.4426 24.6938 66.7886 24.6938C65.4229 24.65 64.1437 25.3572 63.459 26.5345H63.4195V24.8028H61.3418V38.6589H63.4882V33.5019H63.5379C64.1935 34.6866 65.4714 35.3941 66.8281 35.3235ZM66.2224 26.5154C67.8917 26.5154 68.9858 27.9013 68.9858 30.0092C68.9858 32.1363 67.8917 33.512 66.2224 33.512C64.5824 33.512 63.4793 32.1071 63.4793 30.0092C63.4793 27.9305 64.5824 26.5154 66.2224 26.5154ZM82.7018 30.0092C82.7018 33.2447 80.9625 35.3235 78.3378 35.3235C76.9812 35.3941 75.7032 34.6866 75.0477 33.5019H74.998V38.6589H72.8516V24.8027H74.9292V26.5345H74.9687C75.6534 25.3572 76.9327 24.65 78.2983 24.6938C80.9524 24.6938 82.7018 26.7827 82.7018 30.0092ZM80.4956 30.0092C80.4956 27.9013 79.4015 26.5154 77.7321 26.5154C76.0921 26.5154 74.989 27.9304 74.989 30.0092C74.989 32.1071 76.0921 33.512 77.7321 33.512C79.4015 33.512 80.4956 32.1363 80.4956 30.0092ZM103.747 24.8028V22.3389H101.591V24.8028H100.07V26.4953H101.591V32.4631C101.591 34.4823 102.416 35.2741 104.534 35.2741C104.933 35.2815 105.333 35.2484 105.726 35.1753V33.4929C105.491 33.5218 105.256 33.5383 105.02 33.5424C104.146 33.5424 103.747 33.1269 103.747 32.2352V26.4953H105.736V24.8028H103.747ZM111.847 24.6748C108.825 24.6748 106.888 26.7334 106.888 30.0093C106.888 33.2942 108.806 35.3438 111.847 35.3438C114.889 35.3438 116.808 33.2942 116.808 30.0093C116.808 26.7333 114.879 24.6748 111.847 24.6748ZM111.847 26.4357C113.586 26.4357 114.621 27.7621 114.621 30.0093C114.621 32.2655 113.586 33.5817 111.847 33.5817C110.108 33.5817 109.075 32.2655 109.075 30.0093C109.075 27.7722 110.108 26.4357 111.847 26.4357ZM120.624 24.8027H118.577L118.577 35.2144H120.724V29.0388C120.652 28.414 120.859 27.7893 121.289 27.3288C121.719 26.8683 122.329 26.6179 122.96 26.6433C123.287 26.6339 123.612 26.6775 123.925 26.7725V24.7735C123.683 24.7196 123.437 24.6929 123.189 24.6937C122.009 24.6489 120.96 25.434 120.674 26.5748H120.624V24.8027ZM129.319 35.3437C131.684 35.3437 133.533 34.0466 133.822 32.1565L131.783 32.1565C131.392 33.1226 130.41 33.7182 129.368 33.621C128.587 33.6496 127.832 33.3428 127.294 32.7785C126.755 32.2143 126.486 31.447 126.555 30.6719V30.5427H133.941V29.8105C133.941 26.6536 132.122 24.6748 129.229 24.6748C126.287 24.6748 124.389 26.7929 124.389 30.0587C124.389 33.3144 126.277 35.3437 129.319 35.3437ZM131.794 29.0491L126.566 29.0491C126.564 28.3461 126.844 27.6716 127.344 27.1753C127.844 26.6791 128.523 26.4023 129.229 26.4065C129.929 26.3916 130.604 26.6682 131.091 27.1698C131.578 27.6714 131.832 28.3526 131.794 29.0491Z" fill="white" fill-opacity="0.4"/>
		<path fill-rule="evenodd" clip-rule="evenodd" d="M29.5168 10.141C28.4594 11.3445 27.9237 12.9189 28.0277 14.5175C29.6636 14.5343 31.2168 13.8 32.2419 12.525C33.2985 11.2566 33.8191 9.62624 33.693 7.98022C32.0788 8.14977 30.5877 8.92127 29.5168 10.141ZM37.623 32.8114C38.4901 31.5818 39.1573 30.2229 39.5999 28.785C37.2984 27.8115 35.8018 25.5563 35.7991 23.0573C35.8276 20.8485 36.9855 18.8083 38.8673 17.6514C37.6748 15.9482 35.749 14.9071 33.6709 14.8421C32.3335 14.7017 31.0212 15.2226 29.9486 15.6483C29.2677 15.9185 28.6835 16.1504 28.2508 16.1504C27.7587 16.1504 27.1577 15.909 26.4843 15.6385C25.6037 15.2848 24.5993 14.8814 23.5526 14.9029C21.1222 14.9814 18.9114 16.3297 17.7289 18.4546C15.2109 22.8142 17.0891 29.2213 19.5012 32.7453C20.708 34.4709 22.1184 36.3984 23.9639 36.33C24.8011 36.2953 25.3951 36.0453 26.0087 35.7871C26.7187 35.4883 27.4549 35.1785 28.6243 35.1785C29.7269 35.1785 30.4315 35.4786 31.1077 35.7667C31.756 36.0428 32.3781 36.3079 33.2997 36.2866C35.2376 36.2551 36.4585 34.5533 37.623 32.8114Z" fill="white" fill-opacity="0.4"/>
	</symbol>
	<symbol id='google-play' fill='inherit' viewBox='0 0 154 46'>
		<rect y="0.00146484" width="154" height="46" rx="8" fill="white" fill-opacity="0.08"/>
		<path fill-rule="evenodd" clip-rule="evenodd" d="M65.503 9.02188L65.299 9.02021L65.054 9.02366C64.6446 9.04299 64.2408 9.13092 63.8595 9.28434C63.402 9.46844 62.9864 9.74304 62.6375 10.0917C62.2892 10.4397 62.0149 10.8548 61.8314 11.3119C61.648 11.769 61.5592 12.2585 61.5702 12.7509C61.5592 13.2306 61.648 13.7201 61.8314 14.1771C62.0149 14.6343 62.2892 15.0494 62.6376 15.3975C62.9863 15.7463 63.4021 16.0212 63.8598 16.2055C64.3175 16.3898 64.8078 16.4797 65.3012 16.4698L65.577 16.4602L65.7656 16.4471L66.001 16.4142C66.3133 16.3605 66.619 16.2673 66.9111 16.1361C67.3797 15.9142 67.7892 15.5957 68.116 15.2006L68.2796 15.0029L67.2806 14.0057L67.084 14.2506L66.9472 14.4063C66.7561 14.6053 66.5309 14.7692 66.2817 14.89C65.9701 15.041 65.6289 15.1208 65.2827 15.1237C64.67 15.1396 64.0824 14.9068 63.6524 14.4796C63.2311 14.0204 62.9924 13.4074 62.9924 12.7713C62.9924 12.1351 63.2311 11.5222 63.6613 11.0536C63.8656 10.8513 64.1197 10.685 64.399 10.5741C64.6784 10.4632 64.9773 10.41 65.2778 10.4177C65.6052 10.4026 65.9108 10.4612 66.1902 10.5884C66.4695 10.7156 66.7144 10.9076 66.9044 11.1486L67.0967 11.3925L68.1064 10.4235L67.9383 10.2217L67.795 10.0606C67.4986 9.74819 67.1441 9.49552 66.7506 9.31719C66.357 9.13885 65.9333 9.03883 65.503 9.02188ZM73.486 9.17321L73.4869 9.16274H68.3765V10.5404L70.23 10.5402L70.2308 16.3264H71.6431L71.643 10.5402L73.4869 10.5404L73.486 9.39621L75.718 14.3272L75.4859 14.8341C75.4383 14.924 75.3784 14.9981 75.306 15.0592C75.2534 15.0866 75.1496 15.1113 75.0457 15.1035C74.9204 15.102 74.8159 15.0735 74.7238 15.0202L74.4098 14.8384L74.0248 16.2044L74.2498 16.3028L74.398 16.3606C74.5983 16.4297 74.8088 16.4663 75.0214 16.4688C75.4391 16.4515 75.8265 16.3101 76.1452 16.0637C76.4639 15.8174 76.6984 15.4782 76.8164 15.0931L79.4865 9.16274H77.8597L76.453 12.5182L75.0111 9.17322L73.486 9.17321ZM87.44 11.9902L87.4401 9.16274H86.0278V16.3264H87.4401L87.44 13.3452H90.186L90.1869 16.3264H91.5992V9.16274H90.1869L90.186 11.9902H87.44ZM52.978 14.9482L52.9787 9.16274H48.0025V12.7121L48.0203 12.9345C48.037 13.3014 47.989 13.6497 47.8792 13.9812L47.8062 14.1771L47.7193 14.3667C47.6256 14.5529 47.5117 14.7285 47.3796 14.8903L47.318 14.9592L46.4688 14.9592V17.7228H47.8495L47.849 16.3262H52.337L52.3375 17.7124H53.7183V14.9487L52.978 14.9482ZM97.2519 9.28529C96.801 9.09791 96.3176 9.00146 95.8295 9.00146C95.3412 9.00146 94.8578 9.09793 94.407 9.28529C93.9562 9.47262 93.5469 9.74718 93.2023 10.0933C92.5214 10.8113 92.1444 11.7566 92.1444 12.7393C92.1444 13.722 92.5214 14.6673 93.1976 15.3805C93.9024 16.0789 94.846 16.4672 95.8295 16.4672C96.8129 16.4672 97.7565 16.0789 98.4551 15.3867C99.1396 14.6691 99.5184 13.723 99.5184 12.7393C99.5184 11.7556 99.1396 10.8096 98.4607 10.0976C98.1122 9.74729 97.7027 9.47268 97.2519 9.28529ZM59.0276 9.28566C58.5768 9.09838 58.0935 9.00199 57.6055 9.00199C57.1174 9.00199 56.6341 9.09838 56.1833 9.28565C55.7326 9.47294 55.3233 9.74739 54.979 10.0932C54.298 10.8113 53.9211 11.7566 53.9211 12.7393C53.9211 13.7221 54.298 14.6674 54.9742 15.3805C55.6789 16.0786 56.6223 16.4667 57.6055 16.4667C58.5886 16.4667 59.532 16.0786 60.2305 15.3868C60.9151 14.6691 61.2939 13.723 61.2939 12.7393C61.2939 11.7556 60.9151 10.8096 60.2362 10.0976C59.8876 9.7474 59.4783 9.47295 59.0276 9.28566ZM106.626 9.73742C106.21 9.35914 105.659 9.15201 105.09 9.1628L102.42 9.16274V16.3313L105.244 16.2823L105.439 16.2764C105.956 16.2386 106.454 16.026 106.842 15.6697C107.288 15.2827 107.541 14.7101 107.528 14.1127C107.536 13.7183 107.402 13.3209 107.15 12.9993L107.042 12.8713L106.924 12.7534L106.797 12.646L106.691 12.5702L106.789 12.4816L106.903 12.3571L107.005 12.222C107.202 11.9265 107.303 11.5831 107.297 11.2331C107.309 10.6672 107.063 10.1153 106.626 9.73742ZM85.0798 16.3264V9.16274H79.7285V16.3264H81.1408L81.1399 10.5402H83.667L83.6676 16.3264H85.0798ZM94.24 11.0423C94.6555 10.6308 95.2303 10.3941 95.8295 10.3941C96.4285 10.3941 97.0033 10.6308 97.4287 11.0527C97.8428 11.5078 98.0778 12.1149 98.0778 12.7446C98.0778 13.3743 97.8428 13.9813 97.4188 14.4468C96.5443 15.3143 95.1145 15.3143 94.2302 14.4365C93.8161 13.9813 93.5811 13.3742 93.5811 12.7446C93.5811 12.1149 93.8161 11.5079 94.24 11.0423ZM56.0156 11.0423C56.4312 10.6305 57.0061 10.3936 57.6055 10.3936C58.2048 10.3936 58.7797 10.6305 59.2053 11.0526C59.6193 11.5079 59.8543 12.1149 59.8543 12.7446C59.8543 13.3742 59.6194 13.9813 59.1954 14.4468C58.3209 15.3144 56.891 15.3144 56.0057 14.4364C55.5916 13.9813 55.3565 13.3742 55.3565 12.7446C55.3565 12.1149 55.5916 11.5078 56.0156 11.0423ZM49.381 10.5402H51.499V14.9922H48.941L49.0668 14.7025C49.3115 14.0777 49.4199 13.4044 49.3807 12.7282L49.381 10.5402ZM103.837 14.9482L103.862 13.3232L105.261 13.3239L105.364 13.3303C105.77 13.3807 106.082 13.7249 106.082 14.1421C106.079 14.3453 105.997 14.544 105.852 14.6946C105.773 14.7835 105.684 14.8474 105.585 14.8899C105.486 14.9324 105.379 14.9526 105.271 14.9489L103.837 14.9482ZM103.839 11.9902L103.871 10.5062L105.181 10.5067L105.279 10.511C105.343 10.5186 105.406 10.5355 105.466 10.5614C105.556 10.6002 105.636 10.6583 105.701 10.7314C105.775 10.8085 105.827 10.888 105.861 10.9751C105.895 11.0623 105.91 11.1555 105.908 11.2491C105.905 11.3427 105.883 11.4347 105.844 11.5197C105.804 11.6045 105.748 11.6807 105.679 11.7435C105.519 11.9153 105.317 11.9988 105.107 11.9905L103.839 11.9902ZM72.9791 27.0484C73.854 26.169 75.0421 25.6728 76.2825 25.6686V25.6697C76.9021 25.6576 77.5178 25.7701 78.0931 26.0004C78.6684 26.2308 79.1916 26.5743 79.6317 27.0106C80.071 27.4463 80.4179 27.966 80.6517 28.5388C80.8855 29.1115 81.0015 29.7255 80.9926 30.3441C80.9906 31.5844 80.4967 32.7732 79.6191 33.6496C78.7415 34.526 77.5521 35.0183 76.3118 35.0186C75.0716 35.0222 73.8806 34.5336 73.0002 33.6599C72.1199 32.7863 71.6222 31.599 71.6164 30.3588C71.6142 29.1184 72.1043 27.9278 72.9791 27.0484ZM74.6524 32.8032C75.1456 33.0899 75.7135 33.222 76.2825 33.1821C76.6445 33.1739 77.0013 33.0934 77.3318 32.9453C77.6623 32.7973 77.9598 32.5846 78.207 32.3199C78.4535 32.0557 78.6445 31.7447 78.7686 31.4053C78.8928 31.0659 78.9476 30.7051 78.9298 30.3441C78.9279 29.774 78.7544 29.2177 78.4319 28.7476C78.1094 28.2775 77.6528 27.9153 77.1216 27.7083C76.59 27.5005 76.0083 27.4571 75.4518 27.5835C74.8952 27.7099 74.3894 28.0005 73.9997 28.4176C73.6111 28.8341 73.3571 29.3581 73.2709 29.9212C73.1847 30.4844 73.2704 31.0604 73.5168 31.574C73.7637 32.0883 74.1593 32.5165 74.6524 32.8032ZM62.7045 27.0417C63.5816 26.1636 64.7715 25.6697 66.0127 25.6686L66.0118 25.6695C66.6278 25.6589 67.2398 25.7714 67.8118 26.0004C68.3871 26.2308 68.9103 26.5743 69.3504 27.0106C69.7896 27.4463 70.1365 27.966 70.3704 28.5388C70.6042 29.1115 70.7201 29.7255 70.7113 30.3441C70.7113 32.9244 68.615 35.0176 66.0273 35.0186C64.7864 35.0214 63.5951 34.5314 62.7152 33.6562C61.8354 32.7811 61.3389 31.5924 61.3351 30.3515C61.3348 29.1103 61.8273 27.9198 62.7045 27.0417ZM64.3794 32.8092C64.8741 33.0945 65.4432 33.2244 66.0127 33.1821H66.0116H66.0012C66.3632 33.1739 66.7199 33.0934 67.0504 32.9453C67.3809 32.7973 67.6785 32.5846 67.9256 32.3199C68.1723 32.0558 68.3635 31.7448 68.4878 31.4054C68.6122 31.066 68.6672 30.7051 68.6495 30.3441C68.6473 29.7735 68.4732 29.2169 68.1499 28.7467C67.8266 28.2765 67.3691 27.9147 66.8372 27.7083C66.3051 27.5012 65.723 27.4585 65.1664 27.5859C64.6098 27.7133 64.1043 28.0048 63.7153 28.4228C63.327 28.8403 63.0737 29.3652 62.9887 29.9289C62.9036 30.4927 62.9907 31.069 63.2386 31.5824C63.4872 32.0965 63.8847 32.5239 64.3794 32.8092ZM53.7786 29.0901V27.1101L60.475 27.0546C60.5518 27.4646 60.5887 27.881 60.585 28.2981C60.6364 30.0104 60.019 31.6753 58.8637 32.9401C58.2101 33.6222 57.4183 34.1567 56.5412 34.5077C55.6642 34.8588 54.7223 35.0183 53.7786 34.9757C52.4685 35.0271 51.1688 34.7247 50.016 34.1001C48.8633 33.4755 47.9001 32.5519 47.2278 31.4263C46.5572 30.3025 46.2031 29.0181 46.2031 27.7094C46.2031 26.4006 46.5572 25.1163 47.2278 23.9924C47.9003 22.867 48.8635 21.9436 50.0162 21.3192C51.169 20.6948 52.4686 20.3925 53.7786 20.4441C54.7067 20.436 55.6271 20.6138 56.4854 20.9672C57.3436 21.3206 58.1224 21.8423 58.7757 22.5017L57.3751 23.8981C56.4072 22.9667 55.1101 22.4564 53.7671 22.4786C53.0727 22.4776 52.385 22.6134 51.7431 22.8783C51.1013 23.1431 50.5179 23.5317 50.0262 24.022C49.5345 24.5123 49.1443 25.0947 48.8777 25.7358C48.6111 26.3769 48.4734 27.0643 48.4724 27.7586C48.4734 28.4529 48.6111 29.1403 48.8777 29.7814C49.1443 30.4225 49.5345 31.0049 50.0262 31.4952C50.5179 31.9855 51.1013 32.3741 51.7431 32.6389C52.385 32.9038 53.0727 33.0396 53.7671 33.0386C54.4468 33.0659 55.1248 32.9508 55.7575 32.7007C56.3901 32.4507 56.9636 32.0712 57.4411 31.5866C58.0803 30.903 58.4692 30.023 58.5442 29.0901H53.7786ZM102.217 26.5352C102.934 27.0675 103.473 27.8051 103.762 28.6501L103.993 29.1446L97.7157 31.7301C97.9086 32.1674 98.2286 32.5366 98.634 32.7897C99.0394 33.0428 99.5115 33.1683 99.9891 33.1497C100.453 33.151 100.909 33.032 101.313 32.8044C101.718 32.5767 102.056 32.2481 102.295 31.8506L103.894 32.9506C103.464 33.591 102.883 34.1151 102.201 34.4761C101.52 34.8372 100.76 35.0239 99.9891 35.0197C99.3727 35.0288 98.7607 34.9139 98.1897 34.6818C97.6186 34.4496 97.1001 34.1049 96.665 33.6682C96.2306 33.2324 95.8888 32.7133 95.66 32.1421C95.4312 31.5709 95.3201 30.9593 95.3334 30.3441C95.2959 29.7433 95.3823 29.1412 95.5872 28.5751C95.7921 28.009 96.1112 27.4911 96.5246 27.0536C96.9386 26.6151 97.438 26.266 97.992 26.0279C98.5461 25.7897 99.143 25.6674 99.746 25.6686C100.638 25.7006 101.5 26.0028 102.217 26.5352ZM97.4988 29.2078C97.3873 29.5303 97.3414 29.8717 97.3637 30.2121L101.555 28.4741C101.393 28.1566 101.142 27.8936 100.832 27.7176C100.522 27.5416 100.168 27.4604 99.812 27.4841C99.4707 27.4994 99.1359 27.5825 98.8271 27.7285C98.5182 27.8746 98.2416 28.0807 98.0132 28.3348C97.7853 28.5886 97.6104 28.8854 97.4988 29.2078ZM94.3298 34.7441H92.2671H92.266V20.9941H94.3298V34.7441ZM88.8141 26.7141H88.8916V25.9441H90.7889V34.2696C90.7889 37.7236 88.7921 39.1431 86.3763 39.1431C85.4871 39.1491 84.6162 38.8896 83.8753 38.3978C83.1344 37.906 82.5571 37.2044 82.2173 36.3826L84.015 35.6336C84.1994 36.1135 84.5224 36.5277 84.9428 36.8236C85.3633 37.1194 85.8623 37.2836 86.3763 37.2951C87.9205 37.2951 88.8801 36.3386 88.8801 34.5451V33.8746H88.8141C88.5074 34.2272 88.1272 34.5083 87.7003 34.6983C87.2734 34.8884 86.81 34.9827 86.3428 34.9746C85.1392 34.9178 84.0035 34.4002 83.1712 33.529C82.3388 32.6578 81.8734 31.4998 81.8715 30.2949C81.8732 29.0898 82.3384 27.9315 83.1708 27.0601C84.0032 26.1886 85.139 25.6709 86.3428 25.6141C86.8089 25.6133 87.2699 25.7109 87.6958 25.9005C88.1216 26.09 88.5027 26.3673 88.8141 26.7141ZM86.527 33.1818C85.8177 33.1196 85.1572 32.7942 84.6755 32.2697C84.193 31.7444 83.9248 31.0574 83.9238 30.3441C83.9238 28.867 85.0553 27.636 86.5303 27.5061C86.8829 27.524 87.2284 27.6122 87.5465 27.7655C87.8645 27.9188 88.1488 28.1341 88.3825 28.3987C88.8539 28.933 89.0896 29.6349 89.0352 30.3441C89.0652 30.6972 89.0231 31.0526 88.9114 31.3888C88.7997 31.7251 88.6209 32.0351 88.3856 32.3C88.1502 32.5653 87.8636 32.7803 87.5429 32.9319C87.2244 33.0824 86.879 33.1674 86.527 33.1818ZM108.494 20.9941H113.425H113.426H113.436C114.222 20.9377 115.007 21.0983 115.707 21.4582C116.408 21.8181 116.996 22.3635 117.407 23.0349C117.817 23.7054 118.034 24.4761 118.034 25.2621C118.034 26.0481 117.817 26.8188 117.407 27.4894C116.996 28.1607 116.408 28.7062 115.707 29.0661C115.007 29.426 114.222 29.5865 113.436 29.5301H110.557V34.7441H108.494V20.9941ZM110.546 27.5941H113.425L113.469 27.6266C113.779 27.6272 114.086 27.5666 114.373 27.4483C114.66 27.33 114.921 27.1564 115.141 26.9373C115.361 26.7182 115.535 26.4579 115.654 26.1714C115.773 25.8849 115.835 25.5777 115.835 25.2674C115.835 24.957 115.773 24.6498 115.654 24.3633C115.535 24.0768 115.361 23.8165 115.141 23.5975C114.921 23.3784 114.66 23.2047 114.373 23.0864C114.086 22.9682 113.779 22.9076 113.469 22.9081H110.546V27.5941ZM123.994 26.1172C124.646 25.7439 125.394 25.5691 126.144 25.6141L126.199 25.6477C128.549 25.6477 130.38 27.0441 130.38 29.4537V34.7441H128.394V33.6441H128.328C127.755 34.5346 126.739 35.0396 125.681 34.9641C125.256 34.9956 124.829 34.9417 124.425 34.8057C124.022 34.6696 123.649 34.4542 123.33 34.1721C123.011 33.8904 122.753 33.5475 122.569 33.1638C122.385 32.7801 122.281 32.3635 122.261 31.9386C122.261 29.9481 124.258 28.8481 126.232 28.8481C126.982 28.8448 127.721 29.0262 128.384 29.3761V29.2326C128.331 28.7046 128.067 28.2196 127.652 27.8864C127.447 27.7216 127.211 27.5992 126.958 27.5264C126.704 27.4535 126.439 27.4317 126.177 27.4621C125.8 27.4312 125.423 27.5103 125.09 27.69C124.757 27.8696 124.483 28.142 124.302 28.4741L122.471 27.7157C122.812 27.046 123.342 26.4904 123.994 26.1172ZM124.28 31.9826C124.28 32.8081 125.218 33.1486 125.89 33.1486L125.946 33.1821C126.546 33.1683 127.121 32.938 127.565 32.5337C128.009 32.1295 128.292 31.5785 128.362 30.9821C127.789 30.6635 127.142 30.504 126.486 30.5201C125.449 30.5201 124.28 30.8826 124.28 31.9826ZM135.256 31.9061L137.616 25.9441H137.617H139.912L134.263 38.9126H132.112L134.208 34.2821L130.535 25.9441H132.741L135.19 31.9061H135.256ZM121.136 34.7441H119.074H119.072V20.9941H121.136V34.7441Z" fill="white" fill-opacity="0.4"/>
		<path fill-rule="evenodd" clip-rule="evenodd" d="M15 15.239L24.4201 23L15 30.761V15.239ZM15 12.6476V11.7542C15 10.6736 16.1655 9.99441 17.1056 10.5272L30.4091 18.0658L25.9928 21.7043L15 12.6476ZM32.2726 19.1218L27.5654 23L32.273 26.8785L36.9517 24.2273C37.905 23.687 37.905 22.3135 36.9517 21.7733L32.2726 19.1218ZM30.4095 27.9345L25.9928 24.2957L15 33.3524V34.2464C15 35.327 16.1655 36.0061 17.1056 35.4734L30.4095 27.9345Z" fill="white" fill-opacity="0.4"/>
	</symbol>
	<symbol id='app-gallery' fill='inherit' viewBox='0 0 154 46'>
		<rect width="154" height="46" rx="8" fill="white" fill-opacity="0.08"/>
		<path fill-rule="evenodd" clip-rule="evenodd" d="M82.5685 10.0254C82.353 9.91101 82.1881 9.76249 82.0738 9.58289C81.9612 9.40329 81.8893 9.20896 81.8583 9H82.5962C82.6763 9.43755 82.9326 9.65633 83.3669 9.65633C83.8012 9.65633 84.0591 9.43755 84.1424 9H84.8852C84.8559 9.20732 84.784 9.40165 84.6697 9.58289C84.5555 9.76413 84.3905 9.91101 84.1734 10.0254C83.9562 10.1396 83.6868 10.1968 83.3685 10.1968C83.0501 10.1968 82.784 10.1396 82.5685 10.0254ZM75.073 16.187C74.6387 15.9389 74.3057 15.5895 74.0771 15.1388C73.8485 14.6882 73.7326 14.1657 73.7326 13.5699C73.7326 12.9445 73.8551 12.396 74.0999 11.9273C74.3449 11.4588 74.6976 11.0963 75.1579 10.8416C75.6184 10.5853 76.162 10.458 76.7873 10.458C77.3865 10.458 77.9009 10.5821 78.3335 10.8286C78.7661 11.0768 79.0943 11.4245 79.3212 11.8718C79.5482 12.3208 79.6609 12.84 79.6609 13.4294C79.6609 14.0662 79.5367 14.6197 79.2902 15.0898C79.0421 15.56 78.6911 15.9225 78.2322 16.1755C77.7751 16.4303 77.2363 16.5576 76.6192 16.5576C76.0232 16.5609 75.5073 16.4352 75.073 16.187ZM77.7311 15.4589C78.0184 15.2662 78.2322 15.0017 78.3743 14.6637C78.5164 14.3258 78.5882 13.9404 78.5882 13.5061C78.5882 13.08 78.5245 12.6997 78.3988 12.3665C78.273 12.0335 78.0723 11.7674 77.7963 11.5698C77.5204 11.3723 77.1645 11.2727 76.7302 11.2727C76.3155 11.2727 75.9629 11.3739 75.6723 11.5747C75.3816 11.7756 75.1645 12.045 75.0208 12.3829C74.8755 12.7208 74.8036 13.0931 74.8036 13.4996C74.8036 13.9291 74.8722 14.3127 75.0094 14.6523C75.1465 14.9919 75.3555 15.2596 75.6363 15.4556C75.9171 15.6515 76.2665 15.7511 76.6813 15.7511C77.0926 15.7478 77.4437 15.6515 77.7311 15.4589ZM67.2394 16.4777H68.3954L66.188 13.2416L67.2737 11.6841C67.3651 11.5502 67.4549 11.4539 67.5415 11.3935C67.628 11.3331 67.7309 11.3037 67.8517 11.3037C67.9529 11.3037 68.059 11.3282 68.1717 11.3739L68.3856 10.5739C68.2043 10.4972 68.0003 10.4596 67.7701 10.4596C67.4941 10.4596 67.2655 10.5183 67.0827 10.6376C66.8999 10.7568 66.7186 10.9494 66.539 11.2139L65.3096 12.9935H64.7724V10.5413H63.7472V16.4777H64.7724V13.8621H65.4729L67.2394 16.4777ZM70.776 10.5413H69.1776V16.4776H70.203V14.1902C70.4952 14.2441 70.7549 14.2719 70.9817 14.2719C71.3981 14.2719 71.7655 14.1935 72.0854 14.0368C72.4055 13.88 72.6536 13.6547 72.8332 13.3608C73.0112 13.0669 73.101 12.7225 73.101 12.329C73.101 11.7494 72.9002 11.3069 72.5018 11C72.1034 10.6947 71.5271 10.5413 70.776 10.5413ZM72.0772 12.3534C72.0772 12.7143 71.9679 12.9951 71.7491 13.1927C71.5304 13.3903 71.212 13.4898 70.794 13.4898C70.6569 13.4898 70.4593 13.4686 70.203 13.4278V11.32H70.7613C71.1924 11.32 71.5205 11.4 71.7426 11.5616C71.9663 11.7233 72.0772 11.9878 72.0772 12.3534ZM84.8803 13.2139V16.4777H85.8322V10.5413H84.655L81.7195 15.1421C81.744 14.7045 81.757 14.3013 81.757 13.9323V10.5413H80.8052V16.4777H81.9448L84.926 11.8033C84.8951 12.3339 84.8803 12.8041 84.8803 13.2139ZM53.3404 16.1871C52.9061 15.939 52.5731 15.5896 52.3445 15.139C52.1159 14.6883 52 14.1659 52 13.57C52 12.9447 52.1224 12.3961 52.3673 11.9275C52.6122 11.4589 52.9649 11.0965 53.4253 10.8418C53.8857 10.5855 54.4294 10.4581 55.0547 10.4581C55.6538 10.4581 56.1682 10.5822 56.6008 10.8287C57.0335 11.0769 57.3617 11.4247 57.5886 11.8719C57.8155 12.3193 57.9282 12.8401 57.9282 13.4296C57.9282 14.0663 57.8041 14.6198 57.5576 15.09C57.3094 15.5602 56.9584 15.9226 56.4996 16.1757C56.0409 16.4288 55.5037 16.5578 54.8865 16.5578C54.289 16.5611 53.7747 16.4354 53.3404 16.1871ZM55.9968 15.459C56.2841 15.2663 56.498 15.0018 56.64 14.6639C56.7821 14.3259 56.8539 13.9406 56.8539 13.5063C56.8539 13.0802 56.7903 12.6998 56.6645 12.3667C56.5388 12.0336 56.338 11.7675 56.062 11.5699C55.7861 11.3724 55.4303 11.2728 54.9959 11.2728C54.5812 11.2728 54.2286 11.374 53.938 11.5748C53.649 11.7757 53.4302 12.0451 53.2865 12.383C53.1412 12.721 53.0693 13.0933 53.0693 13.4997C53.0693 13.9292 53.138 14.3128 53.2751 14.6524C53.4122 14.992 53.6212 15.2598 53.902 15.4557C54.1829 15.6516 54.5322 15.7512 54.947 15.7512C55.36 15.7479 55.7094 15.6516 55.9968 15.459ZM58.166 11.399H60.0044V16.4786H61.0295V11.399H62.7812L62.875 10.5424H58.255L58.166 11.399ZM88.5401 11.399H86.6993L86.7884 10.5424H91.4108L91.3145 11.399H89.5652V16.4786H88.5401V11.399ZM92.2817 10.5424H95.778L95.6794 11.3845H93.3068V13.0208H95.5446V13.8125H93.3068V15.6244H95.8069L95.7203 16.4786H92.2817V10.5424ZM102.955 13.5453C103.166 13.6759 103.333 13.8457 103.454 14.0579C103.574 14.2703 103.637 14.5184 103.637 14.8024C103.637 15.1339 103.553 15.4245 103.389 15.6776C103.224 15.9307 102.982 16.1266 102.664 16.2686C102.345 16.409 101.963 16.4792 101.517 16.4792H99.5828V10.5413H101.436C102.064 10.5413 102.536 10.6621 102.85 10.9053C103.165 11.1486 103.321 11.4816 103.321 11.9061C103.321 12.2587 103.22 12.5527 103.02 12.7894C102.819 13.0261 102.556 13.1927 102.231 13.2874C102.502 13.3298 102.744 13.4147 102.955 13.5453ZM100.584 12.969H101.224C101.438 12.969 101.625 12.9265 101.787 12.8416C101.95 12.7567 102.074 12.6425 102.162 12.4988C102.251 12.3551 102.293 12.1968 102.293 12.0253C102.293 11.782 102.205 11.6008 102.029 11.48C101.852 11.3592 101.597 11.3004 101.264 11.3004H100.584V12.969ZM102.303 15.4637C102.512 15.2923 102.617 15.0523 102.617 14.7405C102.617 14.409 102.5 14.1576 102.27 13.9861C102.04 13.8147 101.707 13.7282 101.273 13.7282H100.584V15.7201H101.354C101.777 15.7201 102.094 15.6336 102.303 15.4637ZM104.528 31.7577V21.1665L106.57 21V31.3919C106.57 31.7739 106.636 32.0433 106.766 32.2017C106.896 32.3601 107.102 32.4384 107.384 32.4384C107.512 32.4384 107.691 32.4075 107.925 32.347L108.167 33.8181C107.973 33.8964 107.736 33.9584 107.457 34.0041C107.178 34.0515 106.913 34.0744 106.664 34.0744C105.239 34.076 104.528 33.3037 104.528 31.7577ZM85.9185 33.3413C85.0319 32.8515 84.3511 32.1494 83.8743 31.2351C83.3976 30.3209 83.1609 29.2416 83.1609 27.9959C83.1609 26.6441 83.4352 25.4963 83.9821 24.5526C84.5307 23.609 85.2768 22.9004 86.2222 22.4269C87.1658 21.9535 88.2254 21.7167 89.3993 21.7167C90.0916 21.7167 90.7512 21.7934 91.3797 21.9453C92.0083 22.0971 92.5945 22.306 93.1365 22.5721L92.6124 24.1509C91.5218 23.6301 90.4802 23.3705 89.4891 23.3705C88.6532 23.3705 87.9201 23.5485 87.2915 23.9061C86.663 24.2636 86.1748 24.7877 85.8254 25.48C85.4777 26.1722 85.3013 27.0081 85.3013 27.9894C85.3013 28.8481 85.4352 29.609 85.7046 30.2735C85.9723 30.938 86.3969 31.4637 86.9748 31.8523C87.5527 32.2408 88.2826 32.4335 89.1642 32.4335C89.5626 32.4335 89.9626 32.4009 90.3609 32.3339C90.7593 32.267 91.1332 32.1707 91.4826 32.0433V29.6073H88.7005V28.0122H93.4777V33.0801C92.7904 33.4017 92.0688 33.6482 91.3145 33.8196C90.5585 33.9911 89.8075 34.0776 89.0581 34.0776C87.8499 34.0759 86.8034 33.8311 85.9185 33.3413ZM60.1144 30.6865H55.2963L54.1175 33.9094H52L56.7184 21.8717H58.72L63.5461 33.9094H61.3192L60.1144 30.6865ZM55.9021 29.0506H59.4988L58.2106 25.6024C58.0343 25.1257 57.8596 24.5999 57.6865 24.0236C57.5314 24.533 57.3632 25.0539 57.1805 25.5861L55.9021 29.0506ZM64.5013 27.1404C64.5013 26.4759 64.4785 25.7444 64.4344 24.9477H66.361C66.4328 25.3184 66.4818 25.6987 66.5112 26.0857C67.3079 25.2155 68.2223 24.7812 69.2524 24.7812C69.85 24.7812 70.4051 24.9313 70.9128 25.2335C71.4223 25.5355 71.8337 26.0122 72.1471 26.662C72.4606 27.3134 72.6174 28.1395 72.6174 29.1421C72.6174 30.1886 72.4378 31.0832 72.0802 31.8261C71.7243 32.569 71.223 33.1307 70.5814 33.5127C69.9398 33.8947 69.1969 34.0858 68.3545 34.0858C67.7455 34.0858 67.1446 33.9829 66.552 33.7788V37.4833L64.4997 37.6581V27.1404H64.5013ZM69.8958 31.7217C70.3137 31.1601 70.5226 30.3388 70.5226 29.258C70.5226 28.2555 70.3496 27.5289 70.0035 27.0767C69.6573 26.6261 69.1969 26.3991 68.6206 26.3991C68.2223 26.3991 67.8532 26.4939 67.5153 26.6816C67.1773 26.8693 66.8557 27.1225 66.552 27.4375V32.2392C66.7561 32.3388 66.9945 32.4172 67.2654 32.476C67.5365 32.5347 67.8059 32.5625 68.072 32.5625C68.8704 32.5641 69.4777 32.2833 69.8958 31.7217ZM73.863 24.9477C73.9071 25.7444 73.9299 26.4759 73.9299 27.1404H73.9282V37.6581L75.9806 37.4833V33.7788C76.5732 33.9829 77.174 34.0858 77.7831 34.0858C78.6254 34.0858 79.3684 33.8947 80.01 33.5127C80.6516 33.1307 81.1529 32.569 81.5088 31.8261C81.8664 31.0832 82.046 30.1886 82.046 29.1421C82.046 28.1395 81.8892 27.3134 81.5757 26.662C81.2622 26.0122 80.8508 25.5355 80.3414 25.2335C79.8337 24.9313 79.2786 24.7812 78.681 24.7812C77.6508 24.7812 76.7364 25.2155 75.9398 26.0857C75.9103 25.6987 75.8613 25.3184 75.7895 24.9477H73.863ZM79.9528 29.258C79.9528 30.3388 79.7439 31.1601 79.3259 31.7217C78.9079 32.2833 78.3006 32.5641 77.5022 32.5625C77.2361 32.5625 76.9667 32.5347 76.6956 32.476C76.4247 32.4172 76.1863 32.3388 75.9822 32.2392V27.4375C76.2859 27.1225 76.6075 26.8693 76.9455 26.6816C77.2834 26.4939 77.6525 26.3991 78.0508 26.3991C78.6271 26.3991 79.0875 26.6261 79.4337 27.0767C79.7798 27.5289 79.9528 28.2555 79.9528 29.258ZM100.731 32.7208C100.752 33.1649 100.799 33.56 100.87 33.9094V33.9078H102.797C102.752 33.1551 102.731 32.5919 102.731 32.2213V28.6572C102.731 27.689 102.579 26.9168 102.274 26.3437C101.969 25.7706 101.545 25.3657 101.003 25.1306C100.459 24.8955 99.8013 24.7779 99.0257 24.7779C98.3613 24.7779 97.7294 24.8465 97.1319 24.9853C96.5327 25.124 96.051 25.2759 95.6853 25.4424L96.0086 26.938C96.3858 26.76 96.8233 26.6082 97.3212 26.4809C97.8192 26.3534 98.2878 26.2898 98.7253 26.2898C99.3572 26.2898 99.8405 26.453 100.178 26.7763C100.518 27.0996 100.686 27.658 100.686 28.4498V28.6245C100.149 28.5477 99.607 28.5086 99.0584 28.5086C97.5955 28.5086 96.5523 28.7665 95.927 29.2858C95.3016 29.805 94.9881 30.4972 94.9881 31.3674C94.9881 31.9535 95.1123 32.4515 95.3621 32.858C95.6118 33.2662 95.9482 33.5699 96.3711 33.7723C96.7955 33.9748 97.2642 34.076 97.7801 34.076C98.4184 34.076 98.9898 33.9438 99.496 33.6809C100.004 33.418 100.415 33.098 100.731 32.7208ZM100.687 31.485C100.417 31.7903 100.067 32.045 99.6412 32.249C99.2151 32.4531 98.7972 32.556 98.3858 32.556C97.9808 32.556 97.6608 32.4499 97.4258 32.2359C97.1906 32.0237 97.0731 31.694 97.0731 31.2515C97.0731 30.7861 97.2363 30.4172 97.5596 30.1429C97.8829 29.8686 98.469 29.7314 99.3164 29.7314C99.6723 29.7314 100.128 29.7625 100.687 29.8229V31.485ZM109.636 21.1665V31.7577C109.636 33.3037 110.348 34.076 111.772 34.0744C112.022 34.0744 112.286 34.0515 112.566 34.0041C112.845 33.9584 113.082 33.8964 113.275 33.8181L113.033 32.347C112.8 32.4075 112.62 32.4384 112.493 32.4384C112.211 32.4384 112.005 32.3601 111.875 32.2017C111.744 32.0433 111.679 31.7739 111.679 31.3919V21L109.636 21.1665ZM121.782 29.6906H115.917C116.012 31.5682 116.906 32.507 118.601 32.507C119.022 32.507 119.452 32.4563 119.893 32.3535C120.334 32.2507 120.755 32.1135 121.16 31.9421L121.608 33.3462C120.606 33.8327 119.479 34.0776 118.227 34.0776C117.275 34.0776 116.472 33.898 115.818 33.5371C115.164 33.1764 114.673 32.6588 114.343 31.9829C114.013 31.3069 113.849 30.4939 113.849 29.5404C113.849 28.5494 114.023 27.6971 114.372 26.982C114.722 26.2669 115.207 25.7215 115.83 25.3461C116.453 24.969 117.173 24.7812 117.985 24.7812C118.833 24.7812 119.542 24.9787 120.108 25.3754C120.675 25.7722 121.096 26.2995 121.371 26.9575C121.645 27.6171 121.782 28.3453 121.782 29.1421V29.6906ZM119.781 28.3861C119.743 27.671 119.561 27.1355 119.24 26.7779C118.918 26.4204 118.489 26.2424 117.952 26.2424C117.431 26.2424 116.998 26.4221 116.651 26.7828C116.306 27.1436 116.081 27.6775 115.975 28.3861H119.781ZM123.369 24.9461C123.413 25.9534 123.436 26.7044 123.436 27.1975V33.9078H125.479V28.151C125.889 27.5861 126.274 27.1812 126.634 26.9347C126.993 26.6897 127.414 26.5657 127.896 26.5657C128.14 26.5657 128.361 26.5966 128.56 26.6571L128.818 24.8792C128.591 24.8122 128.319 24.7795 128.004 24.7795C127.612 24.7795 127.261 24.8628 126.954 25.0326C126.647 25.2007 126.377 25.4195 126.147 25.6889C125.917 25.9583 125.684 26.2881 125.446 26.6815C125.434 26.466 125.413 26.1853 125.383 25.8392C125.352 25.493 125.322 25.1958 125.287 24.9461H123.369ZM130.049 37.578C129.751 37.5258 129.505 37.4654 129.31 37.4001L129.684 35.9046C129.823 35.9438 129.997 35.9797 130.208 36.0172C130.419 36.0531 130.618 36.0711 130.806 36.0711C131.714 36.0711 132.394 35.4866 132.849 34.3176L132.982 33.9861L129.676 24.9477H131.876L133.538 29.9992C133.81 30.8628 133.984 31.5257 134.063 31.9845C134.218 31.3364 134.401 30.6881 134.612 30.04L136.298 24.9477H138.366L135.069 34.027C134.758 34.8858 134.424 35.578 134.063 36.1037C133.702 36.6295 133.278 37.0197 132.788 37.2743C132.296 37.5291 131.705 37.6564 131.015 37.6564C130.668 37.6564 130.349 37.6303 130.049 37.578Z" fill="white" fill-opacity="0.4"/>
		<path fill-rule="evenodd" clip-rule="evenodd" d="M32.1223 9H19.8777C14.1101 9 12 11.1101 12 16.8777V29.1223C12 34.89 14.1101 37 19.8777 37H32.1188C37.8865 37 40 34.89 40 29.1223V16.8777C40.0017 11.1101 37.8917 9 32.1223 9Z" fill="white" fill-opacity="0.4"/>
		<path d="M26.0008 18.3424C23.4302 18.3424 21.3408 16.2513 21.3408 13.6807H21.9999C21.9999 15.8873 23.7959 17.6833 26.0025 17.6833C28.2093 17.6833 30.0053 15.8873 30.0053 13.6807H30.6644C30.6609 16.2513 28.5698 18.3424 26.0008 18.3424ZM17.545 23.0024H18.2869V26.6635H17.545V25.1763H15.868V26.6635H15.1244V23.0024H15.868V24.4793H17.545V23.0024ZM21.7288 25.0986C21.7288 25.6939 21.4339 26.0113 20.8972 26.0113C20.3573 26.0113 20.0605 25.6835 20.0605 25.0727V23.0041H19.3169V25.0969C19.3169 26.1269 19.8897 26.717 20.887 26.717C21.8945 26.717 22.4724 26.1149 22.4724 25.0658V23.0024H21.7306V25.0986H21.7288ZM30.314 25.5196L29.4824 23.0024H28.8768L28.0452 25.5196L27.2361 23.0041H26.4459L27.7226 26.6635H28.3368L29.1701 24.2602L30.0017 26.6635H30.6211L31.8944 23.0041H31.1249L30.314 25.5196ZM33.2263 25.0883H34.5772V24.4223H33.2263V23.6735H35.188V23.0059H32.4948V26.6618H35.2588V25.994H33.2263V25.0883ZM36.1439 26.6583H36.8771V23.0024H36.1439V26.6583ZM23.939 25.8991L23.606 26.6618H22.8468L24.46 23.0024H25.1156L26.7219 26.6618H25.9438L25.6143 25.8991H23.939ZM24.2168 25.2383H25.34L24.7775 23.9289L24.2168 25.2383Z" fill="black"/>
	</symbol>
	<symbol id='ru-store' fill='inherit' viewBox='0 0 154 46'>
		<rect y="0.00146484" width="154" height="46" rx="8" fill="white" fill-opacity="0.08"/>
		<path fill-rule="evenodd" clip-rule="evenodd" d="M30.7292 38.4046C23.8274 38.4046 20.3765 38.4046 18.2324 36.2904C16.0883 34.1763 16.0883 30.7737 16.0883 23.9684V22.7654C16.0883 15.9601 16.0883 12.5575 18.2324 10.4434C20.3765 8.32938 23.8274 8.32938 30.7292 8.32938H31.9493C38.8511 8.32938 42.302 8.32938 44.4462 10.4434C46.5903 12.5575 46.5903 15.9601 46.5903 22.7654V23.9684C46.5903 30.7737 46.5903 34.1763 44.4462 36.2904C42.302 38.4046 38.8511 38.4046 31.9493 38.4046H30.7292ZM37.5755 27.8118L39.6364 28.3194C40.5699 28.5493 41.4748 27.8568 41.4748 26.9125V17.1183C41.4748 16.287 40.8986 15.5621 40.0768 15.3597L34.1656 13.9037C33.2322 13.6738 32.3272 14.3663 32.3272 15.3106V17.0762L28.6028 16.1588C27.6693 15.9289 26.7644 16.6215 26.7644 17.5657V19.3313L23.0398 18.4139C22.1064 18.184 21.2014 18.8765 21.2014 19.8208L21.2014 29.615C21.2014 30.4463 21.7777 31.1712 22.5995 31.3736L28.5106 32.8295C29.4441 33.0595 30.349 32.3669 30.349 31.4227V29.7942L30.3478 29.794L30.3494 21.6428C30.3494 20.8165 29.8201 20.3375 29.6277 20.1907C29.591 20.1627 29.5809 20.1105 29.6072 20.0728C29.6331 20.0357 29.6798 20.0182 29.7235 20.0312C30.5023 20.263 31.2476 21.0504 31.322 22.0403L31.5791 29.5201C31.5876 29.7659 31.7488 29.979 31.9808 30.059L34.0736 30.5745C35.007 30.8044 35.912 30.1119 35.912 29.1676L35.9135 19.3887C35.9135 18.5624 35.3842 18.0834 35.1918 17.9366C35.1551 17.9086 35.145 17.8564 35.1713 17.8187C35.1972 17.7816 35.2439 17.7641 35.2876 17.7771C36.0664 18.0089 36.8117 18.7963 36.8861 19.7862L37.1433 27.2655C37.1521 27.5214 37.3274 27.7416 37.5755 27.8118Z" fill="white" fill-opacity="0.4"/>
		<path d="M75.4088 36.0174H72.9181L68.966 30.5781H66.887V36.0174H64.7668V21.7087H69.8717C70.8597 21.7087 71.7448 21.8981 72.527 22.277C73.3092 22.6558 73.913 23.1835 74.3384 23.8601C74.7776 24.5231 74.9971 25.2876 74.9971 26.1535C74.9971 27.236 74.6609 28.1628 73.9885 28.9341C73.3161 29.6918 72.4173 30.1924 71.292 30.436L75.4088 36.0174ZM66.887 23.6368V28.6702H69.8717C70.75 28.6702 71.4567 28.4402 71.9919 27.9802C72.5408 27.5066 72.8152 26.8977 72.8152 26.1535C72.8152 25.4093 72.5408 24.8072 71.9919 24.3472C71.4567 23.8736 70.75 23.6368 69.8717 23.6368H66.887Z" fill="white" fill-opacity="0.4"/>
		<path d="M81.0345 36.2204C80.2798 36.2204 79.6005 36.0377 78.9967 35.6724C78.3929 35.2935 77.9195 34.7793 77.5764 34.1299C77.2333 33.4669 77.0618 32.7227 77.0618 31.8973V25.5243H79.0791V31.7349C79.0791 32.5332 79.3055 33.1827 79.7583 33.6833C80.2112 34.184 80.7944 34.4343 81.508 34.4343C82.249 34.4343 82.8665 34.1772 83.3605 33.6631C83.8546 33.1489 84.1016 32.5062 84.1016 31.7349V25.5243H86.1188V36.0174H84.6779L84.2045 34.4343C83.8614 35.0026 83.4086 35.4423 82.8459 35.7535C82.297 36.0647 81.6932 36.2204 81.0345 36.2204Z" fill="white" fill-opacity="0.4"/>
		<path d="M93.6389 36.2204C92.3078 36.2204 91.1482 35.8821 90.1602 35.2056C89.1859 34.5155 88.5203 33.5819 88.1635 32.4047L90.2014 32.08C90.5993 32.8377 91.0728 33.3992 91.6217 33.7645C92.1706 34.1163 92.843 34.2922 93.6389 34.2922C94.4486 34.2922 95.1072 34.1163 95.615 33.7645C96.1227 33.3992 96.3766 32.9053 96.3766 32.2829C96.3766 31.8229 96.2325 31.4373 95.9443 31.126C95.6699 30.8148 95.3199 30.5645 94.8945 30.3751C94.4691 30.1857 93.9134 29.9759 93.2272 29.7459C92.3078 29.4482 91.5531 29.1506 90.963 28.8529C90.3729 28.5552 89.872 28.1358 89.4603 27.5945C89.0624 27.0398 88.8634 26.3362 88.8634 25.4837C88.8634 24.6854 89.0624 23.9886 89.4603 23.3933C89.872 22.7844 90.4347 22.3176 91.1482 21.9928C91.8618 21.6681 92.6577 21.5057 93.536 21.5057C94.7573 21.5057 95.8071 21.8237 96.6854 22.4596C97.5636 23.082 98.188 23.9412 98.5585 25.0372L96.5619 25.362C96.2874 24.7396 95.8963 24.266 95.3886 23.9412C94.8808 23.603 94.2839 23.4338 93.5977 23.4338C92.8567 23.4338 92.2461 23.6097 91.7658 23.9615C91.2855 24.2998 91.0453 24.7666 91.0453 25.362C91.0453 25.8085 91.1825 26.1873 91.457 26.4985C91.7452 26.8098 92.0951 27.0601 92.5068 27.2495C92.9322 27.4389 93.4948 27.6554 94.1947 27.899C95.0867 28.1967 95.8277 28.5011 96.4178 28.8123C97.0216 29.11 97.5293 29.5362 97.941 30.0909C98.3527 30.6457 98.5585 31.3425 98.5585 32.1814C98.5585 32.9933 98.3389 33.7036 97.8998 34.3125C97.4744 34.9214 96.8843 35.395 96.1296 35.7332C95.3886 36.058 94.5583 36.2204 93.6389 36.2204Z" fill="white" fill-opacity="0.4"/>
		<path d="M107.08 34.2719L106.894 36.0174H105.021C103.91 36.0174 103.066 35.7468 102.489 35.2056C101.913 34.6643 101.625 33.8863 101.625 32.8715V27.2901H99.7927V25.5243H101.625L102.181 22.4799H103.642V25.5243H106.894V27.2901H103.642V32.8715C103.642 33.8051 104.102 34.2719 105.021 34.2719H107.08Z" fill="white" fill-opacity="0.4"/>
		<path d="M113.807 36.2204C112.723 36.2204 111.755 35.9903 110.904 35.5303C110.053 35.0702 109.388 34.4275 108.908 33.6022C108.427 32.7768 108.187 31.8364 108.187 30.781C108.187 29.7256 108.427 28.7852 108.908 27.9599C109.388 27.1345 110.053 26.4918 110.904 26.0317C111.755 25.5582 112.723 25.3214 113.807 25.3214C114.891 25.3214 115.858 25.5582 116.709 26.0317C117.56 26.4918 118.225 27.1345 118.706 27.9599C119.186 28.7852 119.426 29.7256 119.426 30.781C119.426 31.8364 119.186 32.7768 118.706 33.6022C118.225 34.4275 117.56 35.0702 116.709 35.5303C115.858 35.9903 114.891 36.2204 113.807 36.2204ZM113.807 34.3937C114.85 34.3937 115.694 34.0622 116.338 33.3992C116.997 32.7362 117.327 31.8635 117.327 30.781C117.327 29.6986 116.997 28.8258 116.338 28.1628C115.694 27.4863 114.85 27.148 113.807 27.148C112.764 27.148 111.92 27.4863 111.275 28.1628C110.63 28.8258 110.307 29.6986 110.307 30.781C110.307 31.8499 110.63 32.7227 111.275 33.3992C111.92 34.0622 112.764 34.3937 113.807 34.3937Z" fill="white" fill-opacity="0.4"/>
		<path d="M121.589 36.0174V25.5243H123.051L123.483 27.0262C123.799 26.4985 124.19 26.1197 124.656 25.8897C125.123 25.6461 125.679 25.5243 126.324 25.5243H126.818L126.982 27.4322H125.83C125.089 27.4322 124.533 27.6419 124.162 28.0613C123.792 28.4808 123.607 29.0491 123.607 29.7662V36.0174H121.589Z" fill="white" fill-opacity="0.4"/>
		<path d="M138.515 30.6998C138.515 30.9704 138.508 31.1802 138.494 31.329H129.705C129.815 32.2626 130.185 33.0068 130.816 33.5616C131.448 34.1163 132.251 34.3937 133.225 34.3937C133.897 34.3937 134.494 34.2652 135.016 34.0081C135.551 33.7375 135.956 33.3857 136.23 32.9527L138.124 33.2571C137.712 34.2043 137.047 34.9349 136.127 35.4491C135.221 35.9633 134.213 36.2204 133.101 36.2204C132.045 36.2204 131.098 35.9903 130.261 35.5303C129.424 35.0567 128.772 34.4072 128.305 33.5819C127.839 32.7565 127.605 31.8229 127.605 30.781C127.605 29.7256 127.839 28.7852 128.305 27.9599C128.772 27.1345 129.417 26.4918 130.24 26.0317C131.063 25.5582 132.004 25.3214 133.06 25.3214C134.103 25.3214 135.036 25.5582 135.86 26.0317C136.697 26.4918 137.349 27.1345 137.815 27.9599C138.282 28.7717 138.515 29.685 138.515 30.6998ZM133.06 27.0871C132.251 27.0871 131.551 27.3239 130.961 27.7975C130.384 28.2711 130 28.907 129.808 29.7053H136.312C136.134 28.9205 135.75 28.2914 135.16 27.8178C134.583 27.3307 133.884 27.0871 133.06 27.0871Z" fill="white" fill-opacity="0.4"/>
		<path d="M68.0987 16.896C67.3775 16.896 66.729 16.7284 66.1535 16.3933C65.5852 16.0509 65.1371 15.5809 64.8092 14.9835C64.4887 14.3788 64.3284 13.6976 64.3284 12.9399C64.3284 12.1821 64.4887 11.5046 64.8092 10.9071C65.1298 10.3024 65.5706 9.83248 66.1316 9.49733C66.6999 9.1549 67.341 8.98369 68.055 8.98369C68.8128 8.98369 69.494 9.17312 70.0987 9.55198C70.7107 9.92355 71.1478 10.4299 71.4101 11.0711L70.503 11.2131C70.2699 10.7833 69.9384 10.4481 69.5085 10.2077C69.086 9.95998 68.616 9.83612 68.0987 9.83612C67.5523 9.83612 67.0678 9.96727 66.6452 10.2296C66.2227 10.4918 65.8912 10.8598 65.6507 11.3333C65.4176 11.7996 65.301 12.3351 65.301 12.9399C65.301 13.5519 65.4176 14.0946 65.6507 14.5682C65.8912 15.0345 66.2227 15.3988 66.6452 15.6611C67.0751 15.9161 67.5669 16.0436 68.1206 16.0436C68.667 16.0436 69.1515 15.9197 69.5741 15.672C69.9967 15.4243 70.3245 15.0746 70.5577 14.6229L71.4648 14.7649C71.1952 15.4207 70.7544 15.9416 70.1424 16.3277C69.5377 16.7066 68.8565 16.896 68.0987 16.896Z" fill="white" fill-opacity="0.4"/>
		<path d="M76.935 16.7977H75.7765L73.5471 14.3715H73.2083V16.7977H72.334V11.1913H73.2083V13.5409H73.558L75.6563 11.1913H76.7164L74.2684 13.9125L76.935 16.7977Z" fill="white" fill-opacity="0.4"/>
		<path d="M79.4438 11.082C80.1141 11.082 80.6423 11.3078 81.0284 11.7596C81.4219 12.204 81.6186 12.8379 81.6186 13.6611V16.7977H81.0284L80.788 15.9124C80.3436 16.5754 79.7243 16.907 78.9301 16.907C78.3618 16.907 77.8956 16.743 77.5313 16.4152C77.1743 16.0873 76.9958 15.6647 76.9958 15.1474C76.9958 14.6156 77.2034 14.193 77.6187 13.8797C78.0413 13.5591 78.646 13.3989 79.4329 13.3989H80.7443C80.7152 12.8889 80.584 12.5027 80.3509 12.2404C80.1177 11.9708 79.8044 11.8361 79.411 11.8361C79.1269 11.8361 78.8682 11.9016 78.6351 12.0328C78.4092 12.1639 78.2344 12.3461 78.1105 12.5792L77.2908 12.4481C77.4511 12.0255 77.7243 11.694 78.1105 11.4536C78.5039 11.2058 78.9484 11.082 79.4438 11.082ZM79.0941 16.1529C79.5822 16.1529 79.9793 15.9926 80.2853 15.672C80.5913 15.3514 80.7443 14.8924 80.7443 14.295V14.1529H79.4438C78.4019 14.1529 77.881 14.4771 77.881 15.1256C77.881 15.4389 77.9903 15.6902 78.2088 15.8797C78.4274 16.0618 78.7225 16.1529 79.0941 16.1529Z" fill="white" fill-opacity="0.4"/>
		<path d="M85.8843 14.6666C85.6875 14.7467 85.4617 14.8087 85.2067 14.8524C84.959 14.8961 84.7185 14.9179 84.4854 14.9179C83.837 14.9179 83.3342 14.7394 82.9772 14.3824C82.6202 14.0181 82.4417 13.5045 82.4417 12.8415V11.1913H83.316V12.8415C83.316 13.6939 83.735 14.1201 84.5728 14.1201C84.7914 14.1201 85.0172 14.0983 85.2504 14.0546C85.4835 14.0109 85.6948 13.9453 85.8843 13.8579V11.1913H86.7585V16.7977H85.8843V14.6666Z" fill="white" fill-opacity="0.4"/>
		<path d="M90.1914 11.082C90.8617 11.082 91.3899 11.3078 91.7761 11.7596C92.1695 12.204 92.3662 12.8379 92.3662 13.6611V16.7977H91.7761L91.5356 15.9124C91.0912 16.5754 90.4719 16.907 89.6778 16.907C89.1095 16.907 88.6432 16.743 88.2789 16.4152C87.9219 16.0873 87.7434 15.6647 87.7434 15.1474C87.7434 14.6156 87.951 14.193 88.3663 13.8797C88.7889 13.5591 89.3936 13.3989 90.1805 13.3989H91.4919C91.4628 12.8889 91.3316 12.5027 91.0985 12.2404C90.8653 11.9708 90.5521 11.8361 90.1586 11.8361C89.8745 11.8361 89.6158 11.9016 89.3827 12.0328C89.1568 12.1639 88.982 12.3461 88.8581 12.5792L88.0385 12.4481C88.1988 12.0255 88.472 11.694 88.8581 11.4536C89.2516 11.2058 89.696 11.082 90.1914 11.082ZM89.8417 16.1529C90.3298 16.1529 90.7269 15.9926 91.0329 15.672C91.3389 15.3514 91.4919 14.8924 91.4919 14.295V14.1529H90.1914C89.1496 14.1529 88.6286 14.4771 88.6286 15.1256C88.6286 15.4389 88.7379 15.6902 88.9565 15.8797C89.1751 16.0618 89.4701 16.1529 89.8417 16.1529Z" fill="white" fill-opacity="0.4"/>
		<path d="M94.9817 16.7977H93.6265V11.1913H94.4789V15.8687H94.6319L97.1018 11.1913H98.457V16.7977H97.6045V12.1202H97.4625L94.9817 16.7977ZM96.0417 10.3935C95.5973 10.3935 95.2257 10.2769 94.927 10.0438C94.6356 9.81062 94.4571 9.45726 94.3915 8.98369H95.1347C95.1784 9.22412 95.2767 9.40626 95.4297 9.53012C95.5827 9.65398 95.7867 9.71591 96.0417 9.71591C96.2967 9.71591 96.5007 9.65398 96.6537 9.53012C96.814 9.40626 96.9124 9.22412 96.9488 8.98369H97.692C97.6337 9.45726 97.4552 9.81062 97.1565 10.0438C96.8577 10.2769 96.4862 10.3935 96.0417 10.3935Z" fill="white" fill-opacity="0.4"/>
		<path d="M102.042 16.7977H101.168V11.9891H99.2223V11.1913H103.987V11.9891H102.042V16.7977Z" fill="white" fill-opacity="0.4"/>
		<path d="M109.878 13.9781C109.878 14.0728 109.875 14.1639 109.867 14.2513H105.124C105.175 14.8123 105.383 15.2604 105.747 15.5955C106.112 15.9307 106.574 16.0982 107.135 16.0982C107.529 16.0982 107.878 16.0181 108.184 15.8578C108.49 15.6975 108.716 15.4862 108.862 15.2239L109.682 15.3551C109.456 15.8578 109.11 16.2439 108.643 16.5135C108.177 16.7758 107.66 16.907 107.092 16.907C106.531 16.907 106.031 16.7831 105.594 16.5354C105.157 16.2877 104.815 15.9416 104.567 15.4972C104.327 15.0527 104.206 14.55 104.206 13.989C104.206 13.428 104.327 12.9289 104.567 12.4918C104.807 12.0473 105.143 11.7013 105.572 11.4536C106.002 11.2058 106.49 11.082 107.037 11.082C107.583 11.082 108.071 11.2058 108.501 11.4536C108.931 11.7013 109.266 12.0473 109.507 12.4918C109.754 12.9289 109.878 13.4244 109.878 13.9781ZM107.037 11.8688C106.556 11.8688 106.144 12.0182 105.802 12.3169C105.467 12.6084 105.252 13.0018 105.157 13.4972H108.928C108.84 13.0091 108.625 12.6156 108.283 12.3169C107.948 12.0182 107.532 11.8688 107.037 11.8688Z" fill="white" fill-opacity="0.4"/>
		<path d="M114.513 16.7977H113.158V11.1913H114.01V15.8687H114.163L116.633 11.1913H117.988V16.7977H117.136V12.1202H116.994L114.513 16.7977Z" fill="white" fill-opacity="0.4"/>
		<path d="M122.262 13.9234C122.539 14.0181 122.768 14.1821 122.95 14.4152C123.133 14.6411 123.224 14.9179 123.224 15.2458C123.224 15.5518 123.136 15.8323 122.961 16.0873C122.787 16.3423 122.539 16.5427 122.218 16.6884C121.905 16.8341 121.541 16.907 121.125 16.907C120.557 16.907 120.062 16.7722 119.639 16.5026C119.216 16.233 118.94 15.8651 118.808 15.3988L119.617 15.2677C119.741 15.5591 119.93 15.7777 120.185 15.9234C120.448 16.0618 120.757 16.131 121.114 16.131C121.508 16.131 121.81 16.0509 122.021 15.8906C122.233 15.723 122.338 15.4935 122.338 15.2021C122.338 14.9398 122.24 14.7322 122.043 14.5792C121.847 14.4189 121.537 14.3387 121.114 14.3387H120.338V13.5519H121.114C121.479 13.5519 121.759 13.479 121.956 13.3333C122.153 13.1876 122.251 12.9909 122.251 12.7431C122.251 12.4736 122.142 12.2586 121.923 12.0984C121.705 11.9381 121.435 11.8579 121.114 11.8579C120.816 11.8579 120.546 11.9308 120.306 12.0765C120.073 12.2149 119.898 12.4116 119.781 12.6666L118.961 12.5246C119.129 12.0656 119.41 11.7122 119.803 11.4645C120.196 11.2095 120.644 11.082 121.147 11.082C121.519 11.082 121.854 11.1512 122.153 11.2896C122.459 11.4281 122.699 11.6175 122.874 11.8579C123.049 12.0984 123.136 12.3716 123.136 12.6776C123.136 12.9763 123.056 13.2386 122.896 13.4644C122.736 13.683 122.524 13.836 122.262 13.9234Z" fill="white" fill-opacity="0.4"/>
	</symbol>
	<symbol id='arrow-pagination' viewBox='0 0 20 20' fill='inherit'>
		<path clip-rule='evenodd' d='m7.284 9.988 6.741-6.459-1.383-1.444-7.5 7.186-.76.727.764.722 7.5 7.091 1.374-1.453-6.736-6.37Z'/>
	</symbol>
	<symbol id='all-lists' viewBox='0 0 16 16' fill='inherit'>
		<path fill-rule='evenodd' clip-rule='evenodd' d='M9.84 8.015 4.447 2.848l1.107-1.155 6 5.748.607.582-.611.577-6 5.674-1.1-1.163 5.39-5.096Z'/>
	</symbol>
	<symbol id='arrow-select' viewBox='0 0 16 16' fill='inherit'>
		<path xmlns="http://www.w3.org/2000/svg" d="M8 11.662 2.667 5.328h10.667L8 11.661Z" fill="#000"/>
	</symbol>
	<symbol id='selected-option' viewBox='0 0 24 24' fill='inherit'>
		<path xmlns="http://www.w3.org/2000/svg" fill-rule="evenodd" d="m22.09 6.354-12 11.75-.85.83-.839-.84-6.5-6.5 1.697-1.696 5.66 5.66L20.41 4.638l1.68 1.716Z"/>
	</symbol>
	<symbol id='arrow-summary' viewBox='0 0 16 16' fill='inherit'>
		<path fill-rule='evenodd' clip-rule='evenodd' d='M7.436 11.03 1.87 5.495l1.128-1.135L8 9.334l5.003-4.973 1.128 1.135-5.567 5.533L8 11.59l-.564-.56Z'/>
	</symbol>
	<symbol id='options' viewBox='0 0 20 20' fill='inherit'>
		<path xmlns="http://www.w3.org/2000/svg" fill-rule="evenodd" clip-rule="evenodd" d="M12.292 7.583a1.125 1.125 0 1 0 0-2.25 1.125 1.125 0 0 0 0 2.25Zm2.961-.125a3.126 3.126 0 0 1-5.923 0H2.083v-2H9.33a3.126 3.126 0 0 1 5.923 0h2.664v2h-2.664Zm-7.545 4.958a1.125 1.125 0 1 0 0 2.25 1.125 1.125 0 0 0 0-2.25Zm-2.961 2.125H2.083v-2h2.664a3.126 3.126 0 0 1 5.923 0h7.247v2H10.67a3.126 3.126 0 0 1-5.923 0Z"/>
	</symbol>
	<symbol id='want-to-plan' viewBox='0 0 16 16' fill='inherit'>
		<path fill-rule='evenodd' clip-rule='evenodd' d='M12.467 6V4.133H14.5v-1.6h-2.033V.5h-1.6v2.033H9v1.6h1.867V6h1.6ZM5.1 2.5H7v1.6H5.1v7.268l2.163-1.122L8 9.864l.737.382 2.163 1.122V8h1.6v6l-1.6-.83L8 11.667 5.1 13.17 3.5 14V2.5h1.6Z'/>
	</symbol>
	<symbol id='planned-to-watch' viewBox='0 0 16 16' fill='#f50'>
		<path xmlns="http://www.w3.org/2000/svg" d="M3.667 2.333h8.666V14L8 11.633 3.667 14V2.334Z"/>
	</symbol>
	<symbol id='ratingStroked' viewBox='0 0 16 16' fill='inherit'>
		<path fill-rule='evenodd' clip-rule='evenodd' d='m8 10.496.785.442 1.71.963-.385-1.947-.173-.875.653-.607 1.459-1.357-1.964-.234-.89-.106-.375-.816L8 4.171 7.18 5.96l-.374.816-.891.106-1.964.234L5.41 8.472l.653.607-.173.875-.385 1.947 1.71-.963.785-.442Zm-2.903 3.47L3.262 15l.408-2.066.65-3.29-2.451-2.28L.333 5.936l2.083-.249 3.31-.395 1.394-3.04L8 .333l.88 1.92 1.395 3.04 3.31.394 2.082.249-1.536 1.428-2.451 2.28.65 3.29.408 2.066-1.835-1.033L8 12.332l-2.903 1.635Z'/>
	</symbol>
	<symbol id='more-options' viewBox='0 0 16 16' fill='inherit'>
		<path fill-rule='evenodd' clip-rule='evenodd' d='M4.667 8A1.333 1.333 0 1 1 2 8a1.333 1.333 0 0 1 2.667 0Zm4.666 0a1.333 1.333 0 1 1-2.666 0 1.333 1.333 0 0 1 2.666 0Zm3.334 1.333a1.333 1.333 0 1 0 0-2.666 1.333 1.333 0 0 0 0 2.666Z'/>
	</symbol>
	<symbol id='trailer' viewBox='0 0 12 12' fill='inherit'>
		<path fill-rule='evenodd' clip-rule='evenodd' d='M8 2.5H1v7h7V7.8L12 9V3L8 4.2V2.5Z'/>
	</symbol>
	<symbol id='left-leaf' viewBox='0 0 10 24' fill='inherit'>
		<path d="M7.26 19.395s1.385-.617 1.768-1.806c.382-1.188-.384-2.498-.384-2.498s-1.386.618-1.768 1.806c-.382 1.189.384 2.498.384 2.498Z" fill="url(#a)"/><path d="M6.583 19.679s-1.457.422-2.516-.24c-1.058-.662-1.317-2.157-1.317-2.157s1.457-.422 2.515.24c1.059.662 1.318 2.157 1.318 2.157Z" fill="url(#b)"/><path d="M5.793 15.217s-.142-1.51.706-2.427c.847-.916 2.364-.892 2.364-.892s.143 1.51-.705 2.427-2.365.892-2.365.892Z" fill="url(#c)"/><path d="M5.547 6.953s1.848-.823 2.357-2.407c.733-2.278-.28-4.048-.28-4.048s-2.344.66-3.085 2.965c-.742 2.305 1.008 3.49 1.008 3.49Z" fill="url(#d)"/><path d="M4.806 10.864s-2.353-.03-3.626-1.488C-.094 7.918.194 5.583.194 5.583s2.353.029 3.626 1.487c1.274 1.459.986 3.794.986 3.794Z" fill="url(#e)"/><path d="M5.484 10.822s-.189-2.014.942-3.235c1.13-1.221 3.153-1.188 3.153-1.188s.19 2.014-.942 3.236c-1.13 1.221-3.153 1.187-3.153 1.187Z" fill="url(#f)"/><path d="M5.32 15.337s-1.989.366-3.305-.653C.698 13.665.554 11.648.554 11.648s1.99-.366 3.305.653c1.317 1.018 1.462 3.036 1.462 3.036Z" fill="url(#g)"/><path fill-rule="evenodd" clip-rule="evenodd" d="M6.313 3.167c.205.034-.51 4.06-.544 4.264-.59 3.547-.394 9.795 3.33 15.285a.384.384 0 0 1-.08.518.373.373 0 0 1-.536-.083C4.61 17.453 4.416 10.978 5.025 7.308c.034-.205 1.083-4.175 1.288-4.141Z" fill="url(#h)"/>
		<defs xmlns="http://www.w3.org/2000/svg"><linearGradient id="a" x1="3.7" y1="3.033" x2="9.68" y2="12.801" gradientUnits="userSpaceOnUse"><stop stop-color="#FFD25E"/><stop offset="1" stop-color="#B59646"/></linearGradient><linearGradient id="b" x1="3.7" y1="3.033" x2="9.68" y2="12.801" gradientUnits="userSpaceOnUse"><stop stop-color="#FFD25E"/><stop offset="1" stop-color="#B59646"/></linearGradient><linearGradient id="c" x1="3.7" y1="3.033" x2="9.68" y2="12.801" gradientUnits="userSpaceOnUse"><stop stop-color="#FFD25E"/><stop offset="1" stop-color="#B59646"/></linearGradient><linearGradient id="d" x1="3.7" y1="3.033" x2="9.68" y2="12.801" gradientUnits="userSpaceOnUse"><stop stop-color="#FFD25E"/><stop offset="1" stop-color="#B59646"/></linearGradient><linearGradient id="e" x1="3.7" y1="3.033" x2="9.68" y2="12.801" gradientUnits="userSpaceOnUse"><stop stop-color="#FFD25E"/><stop offset="1" stop-color="#B59646"/></linearGradient><linearGradient id="f" x1="3.7" y1="3.033" x2="9.68" y2="12.801" gradientUnits="userSpaceOnUse"><stop stop-color="#FFD25E"/><stop offset="1" stop-color="#B59646"/></linearGradient><linearGradient id="g" x1="3.7" y1="3.033" x2="9.68" y2="12.801" gradientUnits="userSpaceOnUse"><stop stop-color="#FFD25E"/><stop offset="1" stop-color="#B59646"/></linearGradient><linearGradient id="h" x1="3.7" y1="3.033" x2="9.68" y2="12.801" gradientUnits="userSpaceOnUse"><stop stop-color="#FFD25E"/><stop offset="1" stop-color="#B59646"/></linearGradient></defs>
	</symbol>
	<symbol id='right-leaf' viewBox='0 0 10 24' fill='inherit'>
		<path d="M2.74 19.395s-1.385-.617-1.768-1.806c-.382-1.188.384-2.498.384-2.498s1.386.618 1.768 1.806c.382 1.189-.384 2.498-.384 2.498Z" fill="url(#a1)"/><path d="M3.417 19.679s1.457.422 2.516-.24c1.058-.662 1.317-2.157 1.317-2.157s-1.457-.422-2.515.24c-1.059.662-1.318 2.157-1.318 2.157Z" fill="url(#b1)"/><path d="M4.207 15.217s.142-1.51-.706-2.427c-.847-.916-2.364-.892-2.364-.892s-.143 1.51.705 2.427 2.365.892 2.365.892Z" fill="url(#c1)"/><path d="M4.453 6.953S2.605 6.13 2.096 4.546c-.733-2.278.28-4.048.28-4.048s2.344.66 3.085 2.965c.742 2.305-1.008 3.49-1.008 3.49Z" fill="url(#d1)"/><path d="M5.194 10.864s2.353-.03 3.626-1.488c1.274-1.458.986-3.793.986-3.793S7.453 5.612 6.18 7.07c-1.274 1.459-.986 3.794-.986 3.794Z" fill="url(#e1)"/><path d="M4.516 10.822s.189-2.014-.942-3.235C2.444 6.366.421 6.399.421 6.399s-.19 2.014.942 3.236c1.13 1.221 3.153 1.187 3.153 1.187Z" fill="url(#f1)"/><path d="M4.68 15.337s1.989.366 3.305-.653c1.317-1.019 1.461-3.036 1.461-3.036s-1.99-.366-3.305.653c-1.317 1.018-1.462 3.036-1.462 3.036Z" fill="url(#g1)"/><path fill-rule="evenodd" clip-rule="evenodd" d="M3.687 3.167c-.205.034.51 4.06.544 4.264.59 3.547.394 9.795-3.33 15.285a.384.384 0 0 0 .08.518c.17.132.415.095.536-.083C5.39 17.453 5.584 10.978 4.975 7.308c-.034-.205-1.083-4.175-1.288-4.141Z" fill="url(#h1)"/>
		<defs xmlns="http://www.w3.org/2000/svg"><linearGradient id="a" x1="6.3" y1="3.033" x2=".32" y2="12.801" gradientUnits="userSpaceOnUse"><stop stop-color="#FFD25E"/><stop offset="1" stop-color="#B59646"/></linearGradient><linearGradient id="b" x1="6.3" y1="3.033" x2=".32" y2="12.801" gradientUnits="userSpaceOnUse"><stop stop-color="#FFD25E"/><stop offset="1" stop-color="#B59646"/></linearGradient><linearGradient id="c" x1="6.3" y1="3.033" x2=".32" y2="12.801" gradientUnits="userSpaceOnUse"><stop stop-color="#FFD25E"/><stop offset="1" stop-color="#B59646"/></linearGradient><linearGradient id="d" x1="6.3" y1="3.033" x2=".32" y2="12.801" gradientUnits="userSpaceOnUse"><stop stop-color="#FFD25E"/><stop offset="1" stop-color="#B59646"/></linearGradient><linearGradient id="e" x1="6.3" y1="3.033" x2=".32" y2="12.801" gradientUnits="userSpaceOnUse"><stop stop-color="#FFD25E"/><stop offset="1" stop-color="#B59646"/></linearGradient><linearGradient id="f" x1="6.3" y1="3.033" x2=".32" y2="12.801" gradientUnits="userSpaceOnUse"><stop stop-color="#FFD25E"/><stop offset="1" stop-color="#B59646"/></linearGradient><linearGradient id="g" x1="6.3" y1="3.033" x2=".32" y2="12.801" gradientUnits="userSpaceOnUse"><stop stop-color="#FFD25E"/><stop offset="1" stop-color="#B59646"/></linearGradient><linearGradient id="h" x1="6.3" y1="3.033" x2=".32" y2="12.801" gradientUnits="userSpaceOnUse"><stop stop-color="#FFD25E"/><stop offset="1" stop-color="#B59646"/></linearGradient></defs>
	</symbol>
	<symbol id='not-interesting' viewBox='0 0 24 24' fill='inherit'>
		<path xmlns="http://www.w3.org/2000/svg" fill-rule="evenodd" clip-rule="evenodd" d="M19.6 12a7.6 7.6 0 1 1-15.2 0 7.6 7.6 0 0 1 15.2 0Zm2.4 0c0 5.523-4.477 10-10 10S2 17.523 2 12 6.477 2 12 2s10 4.477 10 10ZM7.5 13.8h9v-3.6h-9v3.6Z"/>
	</symbol>
	<symbol id='watched' viewBox='0 0 24 24' fill='inherit'>
		<path xmlns="http://www.w3.org/2000/svg" fill-rule="evenodd" clip-rule="evenodd" d="M18.33 13.985c.757-.698 1.4-1.4 1.891-1.985a21.948 21.948 0 0 0-1.892-1.985C16.422 8.26 14.182 6.9 12 6.9c-2.182 0-4.422 1.36-6.33 3.115-.757.698-1.4 1.4-1.891 1.985a21.94 21.94 0 0 0 1.892 1.985C7.578 15.74 9.818 17.1 12 17.1c2.182 0 4.422-1.36 6.33-3.115ZM12 4.5C5.787 4.5.75 12 .75 12S5.787 19.5 12 19.5 23.25 12 23.25 12 18.213 4.5 12 4.5Zm9.26 6.159ZM15 11.999a3 3 0 1 1-6 0 3 3 0 0 1 6 0Z"/>
	</symbol>
	<symbol id='close-black' viewBox='0 0 16 16' fill='inherit'>
		<path xmlns="http://www.w3.org/2000/svg" fill-rule="evenodd" clip-rule="evenodd" d="M6.869 7.994 2.768 3.893l1.131-1.131L8 6.862l4.101-4.1 1.131 1.131-4.1 4.101 4.1 4.101-1.13 1.131L8 9.126l-4.1 4.1-1.132-1.131 4.1-4.101Z"/>
	</symbol>
	<symbol id='addToFolder' viewBox='0 0 24 25' fill='inherit'>
		<path xmlns="http://www.w3.org/2000/svg" fill-rule="evenodd" clip-rule="evenodd" d="M13.25 7.288h-.5L9.25 5h-7v15H21v-5h-2.4v2.6H4.65V7.4h3.885l2.902 1.897.598.391H13.25v-2.4Zm5.35.012V4.25H21V7.3h2.8v2.4H21v2.8h-2.4V9.7h-2.8V7.3h2.8Z"/>
	</symbol>
	<symbol id='ratingFilled' viewBox='0 0 24 24' fill='inherit'>
		<path xmlns="http://www.w3.org/2000/svg" d="M12 17.863 5.511 21.5l1.45-7.304L1.5 9.14l7.385-.878L12 1.5l3.115 6.762 7.385.878-5.46 5.056 1.449 7.304L12 17.863Z"/>
	</symbol>
	<symbol id='subscribe' viewBox='0 0 20 20' fill='inherit'>
		<path xmlns="http://www.w3.org/2000/svg" clip-rule="evenodd" d="M10 2.5a5.417 5.417 0 0 0-5.417 5.417V13H2.5v2h15v-2h-2.083V7.917A5.417 5.417 0 0 0 10 2.5Zm0 16.25a2.5 2.5 0 0 1-2.465-2.083h4.93A2.5 2.5 0 0 1 10 18.75Z"/>
	</symbol>
	<symbol id='star' viewBox='0 0 24 24' fill='inherit'>
		<path xmlns="http://www.w3.org/2000/svg" d="M12 17.863 5.511 21.5l1.45-7.304L1.5 9.14l7.385-.878L12 1.5l3.115 6.762 7.385.878-5.46 5.056 1.449 7.304L12 17.863Z"/>
	</symbol>
</svg>

